<svg width="40" height="40" viewBox="0 0 40 40" fill="none" xmlns="http://www.w3.org/2000/svg">
<g id="Icon - Anchor">
<circle id="Icon Bg" cx="20" cy="20.0002" r="20" fill="#F9F7F7"/>
<g id="Icon">
<path id="Vector" d="M18.7173 15.0655C20.3177 14.6367 21.2674 12.9916 20.8386 11.3912C20.4098 9.79085 18.7648 8.8411 17.1644 9.26993C15.564 9.69876 14.6142 11.3438 15.0431 12.9442C15.4719 14.5446 17.1169 15.4943 18.7173 15.0655Z" stroke="#F33D01" stroke-width="2" stroke-linecap="round" stroke-linejoin="round"/>
<path id="Vector_2" d="M22.3408 28.5884L18.7173 15.0654" stroke="#F33D01" stroke-width="2" stroke-linecap="round" stroke-linejoin="round"/>
<path id="Vector_3" d="M12.991 20.7408L10.0933 21.5172C10.7797 24.079 12.4557 26.2632 14.7525 27.5893C17.0494 28.9154 19.7789 29.2747 22.3407 28.5883C24.9025 27.9018 27.0867 26.2259 28.4128 23.929C29.7389 21.6322 30.0982 18.9026 29.4118 16.3408L26.514 17.1173" stroke="#F33D01" stroke-width="2" stroke-linecap="round" stroke-linejoin="round"/>
</g>
</g>
</svg>
