<svg width="40" height="40" viewBox="0 0 40 40" fill="none" xmlns="http://www.w3.org/2000/svg">
<g id="Icon - Command">
<circle id="Icon Bg" cx="20" cy="20" r="20" fill="#F9F7F7"/>
<g id="Icon">
<path id="Vector" d="M24.6039 7.54426C23.75 7.77307 23.0219 8.33173 22.5799 9.09735C22.1378 9.86296 22.0181 10.7728 22.2469 11.6267L25.6978 24.5058C25.9266 25.3597 26.4853 26.0877 27.2509 26.5298C28.0165 26.9718 28.9263 27.0916 29.7803 26.8628C30.6342 26.634 31.3623 26.0753 31.8043 25.3097C32.2463 24.5441 32.3661 23.6342 32.1373 22.7803C31.9085 21.9264 31.3498 21.1983 30.5842 20.7563C29.8186 20.3142 28.9087 20.1945 28.0548 20.4233L15.1758 23.8742C14.3219 24.103 13.5938 24.6617 13.1518 25.4273C12.7098 26.1929 12.59 27.1027 12.8188 27.9567C13.0476 28.8106 13.6063 29.5387 14.3719 29.9807C15.1375 30.4227 16.0473 30.5425 16.9013 30.3137C17.7552 30.0849 18.4833 29.5262 18.9253 28.7606C19.3673 27.995 19.4871 27.0851 19.2583 26.2312L15.8074 13.3522C15.5786 12.4983 15.0199 11.7702 14.2543 11.3282C13.4887 10.8862 12.5788 10.7664 11.7249 10.9952C10.8709 11.224 10.1429 11.7827 9.70086 12.5483C9.25883 13.3139 9.13905 14.2237 9.36786 15.0777C9.59667 15.9316 10.1553 16.6597 10.9209 17.1017C11.6866 17.5437 12.5964 17.6635 13.4503 17.4347L26.3294 13.9838C27.1833 13.755 27.9113 13.1963 28.3534 12.4307C28.7954 11.6651 28.9152 10.7552 28.6864 9.90128C28.4576 9.04735 27.8989 8.31929 27.1333 7.87726C26.3677 7.43523 25.4578 7.31545 24.6039 7.54426Z" stroke="#F33D01" stroke-width="2" stroke-linecap="round" stroke-linejoin="round"/>
</g>
</g>
</svg>
