<svg width="40" height="40" viewBox="0 0 40 40" fill="none" xmlns="http://www.w3.org/2000/svg">
<g id="Icon - Copy">
<circle id="Icon Bg" cx="20" cy="20" r="20" fill="#F9F7F7"/>
<g id="Icon">
<path id="Vector" d="M27.7036 14.9606L19.0102 17.29C17.9433 17.5759 17.3101 18.6725 17.596 19.7395L19.9254 28.4328C20.2113 29.4997 21.3079 30.1329 22.3749 29.847L31.0682 27.5176C32.1351 27.2318 32.7683 26.1351 32.4824 25.0682L30.153 16.3748C29.8672 15.3079 28.7705 14.6747 27.7036 14.9606Z" stroke="#F33D01" stroke-width="2" stroke-linecap="round" stroke-linejoin="round"/>
<path id="Vector_2" d="M14.7676 24.6385L13.8016 24.8973C13.2893 25.0346 12.7434 24.9627 12.284 24.6975C11.8246 24.4323 11.4894 23.9955 11.3521 23.4831L9.02277 14.7898C8.88548 14.2774 8.95735 13.7315 9.22257 13.2721C9.48778 12.8128 9.92462 12.4776 10.437 12.3403L19.1303 10.0109C19.6427 9.87361 20.1886 9.94549 20.6479 10.2107C21.1073 10.4759 21.4425 10.9128 21.5798 11.4251L21.8386 12.391" stroke="#F33D01" stroke-width="2" stroke-linecap="round" stroke-linejoin="round"/>
</g>
</g>
</svg>
